<svg xmlns="http://www.w3.org/2000/svg" width="70" height="67" viewBox="0 0 70 67"><defs><style>.a{fill:#333;}</style></defs><path class="a" d="M83.471,134.661a1.353,1.353,0,0,0,.673-.179l5.726-3.269a1.359,1.359,0,1,0-1.348-2.361L82.8,132.121a1.359,1.359,0,0,0,.675,2.54Z" transform="translate(-70.876 -112.573)"/><path class="a" d="M82.857,59.615l5.722,3.276a1.359,1.359,0,1,0,1.351-2.359l-5.722-3.276a1.359,1.359,0,0,0-1.351,2.359Z" transform="translate(-70.929 -50.814)"/><circle class="a" cx="1.359" cy="1.359" r="1.359" transform="translate(56.174 44.897)"/><circle class="a" cx="1.359" cy="1.359" r="1.359" transform="translate(56.159 25.67)"/><circle class="a" cx="1.359" cy="1.359" r="1.359" transform="translate(44.854 5.505)"/><path class="a" d="M69.312,56.054,58.8,50.037l0-5.851a1.368,1.368,0,0,0-1.367-1.369,1.368,1.368,0,0,0-1.366,1.367l0,5.82-9.916,5.662-9.78-5.6.007-11.242,10.515-6a1.372,1.372,0,0,0,.689-1.188l0-7.576a1.367,1.367,0,0,0-2.734,0l0,6.782-9.821,5.608-9.843-5.637L25.2,18.8a1.367,1.367,0,0,0-.688-1.187L13.285,11.181a1.366,1.366,0,0,0-1.357,0L.7,17.593a1.368,1.368,0,0,0-.689,1.187L0,31.619a1.367,1.367,0,0,0,.688,1.187l10.507,6.017L11.187,50.84a1.367,1.367,0,0,0,.688,1.187L22.307,58,22.3,70.2a1.367,1.367,0,0,0,.688,1.187l11.222,6.427a1.367,1.367,0,0,0,1.357,0L46.8,71.407a1.368,1.368,0,0,0,.689-1.187l.008-12.108,9.969-5.693,9.8,5.614V71.3A1.367,1.367,0,1,0,70,71.3V57.241a1.367,1.367,0,0,0-.688-1.186ZM2.742,19.574,12.6,13.943l9.856,5.644-.007,11.192-9.917,5.663-9.8-5.613ZM13.929,38.857l9.917-5.663,9.8,5.613L33.641,50.06l-9.863,5.632-9.856-5.644ZM44.753,69.426,34.89,75.058l-9.856-5.644.007-11.253L34.9,52.528l9.856,5.644Z" transform="translate(0 -11)"/><path class="a" d="M251.625,411.046l-5.726,3.269a1.359,1.359,0,1,0,1.348,2.361l5.726-3.269a1.359,1.359,0,1,0-1.348-2.361Z" transform="translate(-211.661 -356.118)"/><path class="a" d="M245.456,339.954a1.359,1.359,0,0,0,.5,1.855l5.722,3.277a1.359,1.359,0,1,0,1.351-2.359l-5.722-3.276A1.359,1.359,0,0,0,245.456,339.954Z" transform="translate(-211.715 -294.358)"/><path class="a" d="M204.481,363.325h0a1.359,1.359,0,0,0-1.359,1.358l0,6.455a1.359,1.359,0,0,0,1.358,1.36h0a1.359,1.359,0,0,0,1.359-1.358l0-6.455A1.359,1.359,0,0,0,204.481,363.325Z" transform="translate(-175.34 -315.038)"/><path class="a" d="M451.771,362.047l-.413-.236a1.359,1.359,0,0,0-1.621,2.156l0,8.3a1.36,1.36,0,0,0,2.72,0,0,0,0,0,1,0,0l.005-9.036a1.362,1.362,0,0,0-.685-1.18Z" transform="translate(-387.841 -313.573)"/></svg>