<svg xmlns="http://www.w3.org/2000/svg" width="70" height="70.001" viewBox="0 0 70 70.001"><defs><style>.a{fill:#333;}</style></defs><g transform="translate(-0.002)"><g transform="translate(0.002 16.003)"><path class="a" d="M39.729,160.385,24.812,137.327V118.792a1.459,1.459,0,0,0-1.459-1.459h-7.3a1.459,1.459,0,0,0-1.459,1.459v18.575L1,160.487a7.195,7.195,0,0,0,6.2,10.843H33.773a7.094,7.094,0,0,0,5.956-10.945Zm-5.956,8.027H7.2a4.276,4.276,0,0,1-3.692-6.445L17.314,138.5a1.459,1.459,0,0,0,.2-.74V120.252h4.378v17.513a1.459,1.459,0,0,0,.234.792L37.276,161.97a4.174,4.174,0,0,1-3.5,6.442Z" transform="translate(-0.003 -117.333)"/></g><g transform="translate(5.915 40.9)"><path class="a" d="M58.331,300.785l-2.516-1.478L43.424,320.37a1.459,1.459,0,0,0,1.259,2.2H54.821v-2.919H47.233Z" transform="translate(-43.222 -299.307)"/></g><g transform="translate(37.896 33.516)"><path class="a" d="M305.919,245.333H283.173a5.838,5.838,0,0,0-5.838,5.838v23.35a7.306,7.306,0,0,0,7.3,7.3h13.135a7.306,7.306,0,0,0,7.3-7.3V254.694l3.348-3.346a3.524,3.524,0,0,0-2.493-6.014Zm.428,3.951-3.774,3.774a1.459,1.459,0,0,0-.428,1.032v20.431a4.378,4.378,0,0,1-4.378,4.378H284.632a4.378,4.378,0,0,1-4.378-4.378v-23.35a2.919,2.919,0,0,1,2.919-2.919h22.746a.6.6,0,0,1,.428,1.032Z" transform="translate(-277.335 -245.333)"/></g><g transform="translate(52.49 42.272)"><path class="a" d="M388.38,309.333v18.972H384v2.919h5.838a1.459,1.459,0,0,0,1.459-1.459V309.333Z" transform="translate(-384.002 -309.333)"/></g><g transform="translate(22.593)"><path class="a" d="M183.577,21.138V1.459A1.459,1.459,0,0,0,182.118,0H171.9a1.459,1.459,0,0,0-1.459,1.459V21.552a24.773,24.773,0,0,0-5.108,2.228l1.459,2.526a21.872,21.872,0,0,1,5.473-2.237,1.459,1.459,0,0,0,1.095-1.414V2.919h7.3v19.4a1.46,1.46,0,0,0,1.186,1.433,21.911,21.911,0,0,1,12.978,7.812l2.275-1.827A24.846,24.846,0,0,0,183.577,21.138Z" transform="translate(-165.335)"/></g><g transform="translate(56.868 20.414)"><path class="a" d="M421.11,149.333a5.108,5.108,0,1,0,5.108,5.108A5.108,5.108,0,0,0,421.11,149.333Zm0,7.3a2.189,2.189,0,1,1,2.189-2.189A2.189,2.189,0,0,1,421.11,156.63Z" transform="translate(-416.002 -149.333)"/></g><g transform="translate(52.49 10.216)"><path class="a" d="M388.38,74.667a4.378,4.378,0,1,0,4.378,4.378A4.378,4.378,0,0,0,388.38,74.667Zm0,5.837a1.459,1.459,0,1,1,1.459-1.459A1.459,1.459,0,0,1,388.38,80.5Z" transform="translate(-384.002 -74.667)"/></g><g transform="translate(0.002 11.665)"><path class="a" d="M5.11,85.333a5.108,5.108,0,1,0,5.108,5.108A5.108,5.108,0,0,0,5.11,85.333Zm0,7.3A2.189,2.189,0,1,1,7.3,90.441,2.189,2.189,0,0,1,5.11,92.63Z" transform="translate(-0.002 -85.333)"/></g><g transform="translate(7.299 1.459)"><path class="a" d="M57.713,10.667a4.378,4.378,0,1,0,4.378,4.378A4.378,4.378,0,0,0,57.713,10.667Zm0,5.837a1.459,1.459,0,1,1,1.459-1.459A1.459,1.459,0,0,1,57.713,16.5Z" transform="translate(-53.335 -10.667)"/></g><g transform="translate(43.75 42.291)"><rect class="a" width="4.378" height="2.919"/></g><g transform="translate(43.751 48.124)"><rect class="a" width="2.919" height="2.919"/></g><g transform="translate(43.75 53.957)"><rect class="a" width="4.378" height="2.919"/></g><g transform="translate(43.751 59.785)"><rect class="a" width="2.919" height="2.919"/></g><g transform="translate(2.921 26.249)"><rect class="a" width="2.919" height="2.919"/></g><g transform="translate(7.299 33.541)"><rect class="a" width="2.919" height="2.919"/></g><g transform="translate(32.085 39.374)"><rect class="a" width="2.919" height="2.919"/></g><g transform="translate(29.168 33.541)"><rect class="a" width="2.919" height="2.919"/></g><g transform="translate(27.71 27.708)"><rect class="a" width="2.919" height="2.919"/></g><g transform="translate(29.168 59.785)"><rect class="a" width="2.919" height="2.919"/></g><g transform="translate(24.793 53.957)"><rect class="a" width="2.919" height="2.919"/></g></g></svg>