<?xml version="1.0" encoding="utf-8"?>
<!-- Generator: Adobe Illustrator 24.3.0, SVG Export Plug-In . SVG Version: 6.00 Build 0)  -->
<svg version="1.1" id="Layer_1" xmlns="http://www.w3.org/2000/svg" xmlns:xlink="http://www.w3.org/1999/xlink" x="0px" y="0px"
	 viewBox="0 0 84.6 87.5" style="enable-background:new 0 0 84.6 87.5;" xml:space="preserve">
<style type="text/css">
	.st0{fill:#E5635C;}
	.st1{fill:#6EC4C2;}
	.st2{fill:#FFFFFF;}
</style>
<path id="prod_hex_down_bg" class="st0" d="M26.6,73.4l34.1-1.2l16-29.7l-18.3-28L26.6,73.4z"/>
<path id="prod_hex_down_bg_1_" class="st1" d="M58.4,14.4l-33.5-0.1L8.9,44l17.7,29.4"/>
<path class="st2" d="M23.9,36.5h-2.5c-0.4,0-0.8,0.3-0.8,0.8v7.5c0,0.4,0.3,0.8,0.8,0.8h2.5c0.4,0,0.8-0.3,0.8-0.8v-7.5
	C24.6,36.8,24.3,36.5,23.9,36.5z M22.7,44.2c-0.4,0-0.8-0.3-0.8-0.8c0-0.4,0.3-0.8,0.8-0.8s0.8,0.3,0.8,0.8
	C23.4,43.9,23.1,44.2,22.7,44.2z M32.6,32c0,1.3-0.8,2-1,3h3.2c1,0,1.9,0.9,1.9,1.8c0,0.5-0.2,1.2-0.6,1.6l0,0
	c0.3,0.7,0.2,1.7-0.3,2.5c0.2,0.8,0,1.8-0.5,2.3c0.2,0.5,0.1,1-0.2,1.4c-0.6,0.9-2.2,0.9-3.5,0.9h-0.1c-1.5,0-2.7-0.5-3.8-1
	c-0.5-0.2-1.2-0.5-1.6-0.5c-0.2,0-0.4-0.2-0.4-0.4V37c0-0.1,0.1-0.2,0.1-0.2c1.3-1.3,1.8-2.5,2.8-3.5c0.5-0.5,0.6-1.2,0.8-1.9
	c0.2-0.5,0.4-1.8,1.1-1.8C31.1,29.5,32.6,29.8,32.6,32z"/>
<path class="st2" d="M56.2,46.5V39c0-0.4-0.3-0.8-0.8-0.8h-2.5c-0.4,0-0.8,0.3-0.8,0.8v7.5c0,0.4,0.3,0.8,0.8,0.8h2.5
	C55.9,47.3,56.2,47,56.2,46.5z M55,40.4c0,0.4-0.3,0.8-0.8,0.8c-0.4,0-0.8-0.3-0.8-0.8c0-0.5,0.3-0.8,0.8-0.8
	C54.7,39.6,55,39.9,55,40.4z M61.9,54.3c-0.6,0-0.9-1.2-1.1-1.8c-0.2-0.7-0.3-1.4-0.8-1.9c-1-1-1.6-2.3-2.8-3.5
	c-0.1-0.1-0.1-0.2-0.1-0.2v-6.6c0-0.2,0.2-0.4,0.4-0.4c0.5,0,1.2-0.3,1.6-0.5c1-0.5,2.2-1,3.7-1H63c1.3,0,2.9,0,3.5,0.9
	c0.2,0.4,0.3,0.9,0.2,1.4c0.5,0.5,0.8,1.6,0.5,2.3c0.5,0.7,0.6,1.7,0.3,2.5l0,0c0.4,0.4,0.6,0.9,0.6,1.6c0,0.9-0.8,1.8-1.9,1.8h-3.1
	c0.2,0.9,1,1.6,1,3C64.2,54,62.7,54.3,61.9,54.3z"/>
</svg>
